<svg width="120" height="36" viewBox="0 0 120 36" fill="none" xmlns="http://www.w3.org/2000/svg">
  <!-- Background circle -->
  <circle cx="18" cy="18" r="16" fill="url(#gradient)" stroke="url(#gradient)" stroke-width="2"/>
  
  <!-- Brain/Intelligence icon -->
  <path d="M18 8C20.5 8 22.5 10 22.5 12.5C22.5 14 21.5 15.5 20 16.5C21.5 17.5 22.5 19 22.5 20.5C22.5 23 20.5 25 18 25C15.5 25 13.5 23 13.5 20.5C13.5 19 14.5 17.5 16 16.5C14.5 15.5 13.5 14 13.5 12.5C13.5 10 15.5 8 18 8Z" fill="white"/>
  
  <!-- Neural connections -->
  <circle cx="14" cy="14" r="1.5" fill="white" opacity="0.8"/>
  <circle cx="22" cy="14" r="1.5" fill="white" opacity="0.8"/>
  <circle cx="14" cy="22" r="1.5" fill="white" opacity="0.8"/>
  <circle cx="22" cy="22" r="1.5" fill="white" opacity="0.8"/>
  
  <!-- Company name -->
  <text x="42" y="24" font-family="Inter, sans-serif" font-size="18" font-weight="700" fill="currentColor">Misi 24x7</text>
  
  <!-- Gradient definitions -->
  <defs>
    <linearGradient id="gradient" x1="0%" y1="0%" x2="100%" y2="100%">
      <stop offset="0%" style="stop-color:#667eea"/>
      <stop offset="100%" style="stop-color:#764ba2"/>
    </linearGradient>
  </defs>
</svg>
